<svg width="32" height="36" viewBox="0 0 32 36" fill="none" xmlns="http://www.w3.org/2000/svg">
<path d="M0.5 8C0.5 3.85786 3.85786 0.5 8 0.5H15.5V35.5H8C3.85786 35.5 0.5 32.1421 0.5 28V8Z" fill="#006838" stroke="white"/>
<path d="M16.5 0.5H24C28.1421 0.5 31.5 3.85786 31.5 8V28C31.5 32.1421 28.1421 35.5 24 35.5H16.5V0.5Z" fill="#8DC63F" stroke="white"/>
<path d="M21 12C21 11.953 20.9994 11.9061 20.9981 11.8594C20.9236 9.163 18.7144 7 16 7C13.3106 7 11.1171 9.12341 11.0046 11.7852C11.0015 11.8564 11 11.928 11 12M21 12H11M21 12H22.3087C24.3944 12 25.4373 12 26.0335 12.6662C26.6298 13.3323 26.5146 14.3688 26.2843 16.4417L25.9884 19.1043C25.5183 23.3356 25.2832 25.4513 23.8594 26.7256C22.4356 28 20.2904 28 16 28C11.7096 28 9.56443 28 8.14063 26.7256C6.71683 25.4513 6.48176 23.3356 6.01161 19.1043L5.71577 16.4417C5.48544 14.3688 5.37028 13.3323 5.96652 12.6662C6.56276 12 7.60561 12 9.6913 12H11" stroke="white" stroke-width="1.5"/>
</svg>
